<?xml version="1.0" encoding="utf-8"?>
<!-- Generator: Adobe Illustrator 25.2.1, SVG Export Plug-In . SVG Version: 6.00 Build 0)  -->
<svg version="1.1" id="Capa_1" xmlns="http://www.w3.org/2000/svg" xmlns:xlink="http://www.w3.org/1999/xlink" x="0px" y="0px"
	 viewBox="0 0 640 480" style="enable-background:new 0 0 640 480;" xml:space="preserve">
<style type="text/css">
	.st0{fill:#B9C4E1;}
	.st1{fill:#FFFFFF;}
</style>
<g>
	<circle class="st0" cx="320.66" cy="240.51" r="221.49"/>
	<ellipse class="st1" cx="320.66" cy="204.23" rx="86.16" ry="111.38"/>
	<path class="st1" d="M320.66,323.89c-69.32,0-130.37,25.03-166.15,63.01c40.59,46.03,99.96,75.1,166.15,75.1
		s125.56-29.07,166.15-75.1C451.03,348.92,389.98,323.89,320.66,323.89z"/>
	<path class="st1" d="M349.94,381.17h-58.56c-5.29,0-9.62-4.33-9.62-9.62V250.14c0-5.29,4.33-9.62,9.62-9.62h58.56
		c5.29,0,9.62,4.33,9.62,9.62v121.41C359.56,376.84,355.23,381.17,349.94,381.17z"/>
	<path class="st1" d="M246.4,209.4c5.02,14.44,3.03,28.26-4.45,30.85c-7.47,2.59-17.59-7.01-22.61-21.46
		c-5.02-14.44-3.03-28.26,4.45-30.85C231.26,185.35,241.38,194.96,246.4,209.4z"/>
	<path class="st1" d="M394.92,209.4c-5.02,14.44-3.03,28.26,4.45,30.85c7.47,2.59,17.59-7.01,22.61-21.46
		c5.02-14.44,3.03-28.26-4.45-30.85C410.06,185.35,399.94,194.96,394.92,209.4z"/>
	<path class="st1" d="M426.36,219.02c-1.89-27.5-0.95-55.73-9.8-81.83c-9.94-29.33-32.85-54.42-61.88-65.21
		c-29.03-10.79-63.69-6.34-87.95,12.91c-8.5,6.75-16.14,16.43-15.29,27.25c-14.73-4.99-31.16,5.48-38.05,19.43
		c-6.89,13.95-6.55,30.25-5.57,45.77c2.87,45.5,9.81,92.14-2.5,135.99c37.76,1.14,75.52,2.29,113.28,3.43
		c12.09,0.37,24.19,0.73,36.28,0.21c30.83-1.33,62.79-8.28,91.83,2.17C435.57,286.86,428.71,253.1,426.36,219.02z"/>
</g>
</svg>
