<?xml version="1.0" encoding="utf-8"?>
<!-- Generator: Adobe Illustrator 25.2.1, SVG Export Plug-In . SVG Version: 6.00 Build 0)  -->
<svg version="1.1" id="Capa_1" xmlns="http://www.w3.org/2000/svg" xmlns:xlink="http://www.w3.org/1999/xlink" x="0px" y="0px"
	 viewBox="0 0 640 480" style="enable-background:new 0 0 640 480;" xml:space="preserve">
<style type="text/css">
	.st0{fill:#B9C4E1;}
	.st1{fill:#FFFFFF;}
</style>
<g>
	
		<ellipse transform="matrix(0.7071 -0.7071 0.7071 0.7071 -74.6825 300.4477)" class="st0" cx="325.33" cy="240.37" rx="215.63" ry="215.63"/>
	<ellipse class="st1" cx="325.33" cy="205.06" rx="83.88" ry="108.43"/>
	<path class="st1" d="M325.33,321.54c-70.16,0-131.92,21.44-167.99,53.95C196.86,424.57,257.41,456,325.33,456
		c67.92,0,128.47-31.43,167.99-80.51C457.25,342.99,395.5,321.54,325.33,321.54z"/>
	<path class="st1" d="M357.12,377.31h-63.57c-5.29,0-9.62-4.33-9.62-9.62V250c0-5.29,4.33-9.62,9.62-9.62h63.57
		c5.29,0,9.62,4.33,9.62,9.62v117.69C366.74,372.98,362.41,377.31,357.12,377.31z"/>
	<path class="st1" d="M253.03,210.09c4.88,14.06,2.95,27.51-4.33,30.04s-17.13-6.83-22.01-20.89c-4.88-14.06-2.95-27.51,4.33-30.04
		S248.15,196.02,253.03,210.09z"/>
	
		<ellipse transform="matrix(0.328 -0.9447 0.9447 0.328 73.2604 532.3107)" class="st1" cx="410.8" cy="214.66" rx="26.95" ry="13.94"/>
	<path class="st1" d="M251.92,209.63c-10.9-19.83-22.11-40.86-21.55-63.48c0.56-22.62,17.78-46.49,40.39-45.67
		c3.94,0.14,7.9,1.01,11.81,0.45c7.82-1.11,13.61-7.5,19.96-12.21c14.31-10.61,34.23-13.13,50.72-6.41
		c10.19,4.15,18.83,11.42,28.77,16.14c18.53,8.8,41.36,7.88,59.11-2.39c-3.7,6.97-9.97,12.53-17.33,15.38
		c6.78,2.16,14.3,1.96,20.95-0.58c-4.01,7.26-10.64,13.04-18.39,16.02c5.74,0.4,11.48,0.79,17.22,1.19
		c-4.9,6.94-11.9,12.37-19.83,15.39c4.5,0.15,9,0.29,13.5,0.44c-3.35,9.93-12.04,17.87-22.23,20.32c2.9,0.04,5.8,0.08,8.7,0.12
		c-9.5,13.71-19.01,27.43-28.51,41.14c-2.72,3.92-5.54,7.94-9.55,10.51c-3.33,2.14-7.26,3.12-11.12,3.99
		c-28.15,6.31-57.29,8.21-86.03,5.6c-9.83-0.89-20.11-2.51-27.92-8.54c-7.81-6.03-12-17.83-6.62-26.11"/>
	<path class="st1" d="M271.26,342.03c0.62-11.38,2.04-22.71,4.24-33.89c5.63,6.43,15.17,7.24,23.71,7.59
		c12.92,0.53,25.85,1.05,38.77,1.58c1.51,8.82,2.55,19.18-3.82,25.46c-2.95,2.91-7.03,4.36-11.03,5.47
		c-8.71,2.42-17.74,3.69-26.79,3.74c-10.73,0.07-23.51-3.15-26.94-13.31c1.16-0.96,2.33-1.91,3.49-2.87"/>
	<path class="st1" d="M379.41,342.03c-0.62-11.38-2.04-22.71-4.24-33.89c-5.63,6.43-15.17,7.24-23.71,7.59
		c-12.92,0.53-25.85,1.05-38.77,1.58c-1.51,8.82-2.55,19.18,3.82,25.46c2.95,2.91,7.03,4.36,11.03,5.47
		c8.71,2.42,17.74,3.69,26.79,3.74c10.73,0.07,23.51-3.15,26.94-13.31c-1.16-0.96-2.33-1.91-3.49-2.87"/>
</g>
</svg>
