<?xml version="1.0" encoding="utf-8"?>
<!-- Generator: Adobe Illustrator 25.2.1, SVG Export Plug-In . SVG Version: 6.00 Build 0)  -->
<svg version="1.1" id="Capa_1" xmlns="http://www.w3.org/2000/svg" xmlns:xlink="http://www.w3.org/1999/xlink" x="0px" y="0px"
	 viewBox="0 0 640 480" style="enable-background:new 0 0 640 480;" xml:space="preserve">
<style type="text/css">
	.st0{fill:#B9C4E1;}
	.st1{fill:#FFFFFF;}
</style>
<g>
	
		<ellipse transform="matrix(0.7071 -0.7071 0.7071 0.7071 -76.0226 297.2736)" class="st0" cx="320.83" cy="240.4" rx="226.17" ry="226.17"/>
	<ellipse class="st1" cx="320.83" cy="211.48" rx="87.98" ry="121.86"/>
	<path class="st1" d="M319.44,325.54c-73.65,0-139.48,17.65-183.27,45.37c40.97,57.85,108.38,95.66,184.66,95.66
		c75.74,0,142.74-37.27,183.79-94.43C460.85,343.71,394.17,325.54,319.44,325.54z"/>
	<path class="st1" d="M358.21,384.04h-74.77c-5.29,0-9.62-4.33-9.62-9.62V250.03c0-5.29,4.33-9.62,9.62-9.62h74.77
		c5.29,0,9.62,4.33,9.62,9.62v124.38C367.84,379.7,363.51,384.04,358.21,384.04z"/>
	<path class="st1" d="M246.74,218.41c2.63,19.54-1.7,36.48-9.69,37.83c-7.99,1.36-16.59-13.38-19.23-32.92
		c-2.63-19.54,1.7-36.48,9.69-37.84C235.5,184.13,244.11,198.87,246.74,218.41z"/>
	<path class="st1" d="M394.92,218.41c-2.63,19.54,1.7,36.48,9.69,37.83c7.99,1.36,16.59-13.38,19.23-32.92
		c2.63-19.54-1.7-36.48-9.69-37.84C406.16,184.13,397.55,198.87,394.92,218.41z"/>
	<path class="st1" d="M235.92,206.69c-2.96-19.51-5.92-39.01-8.88-58.52c-1.07-7.08-2.11-14.55,0.47-21.23
		c2.59-6.68,10.17-12,16.88-9.49c-2.69-13.57,12.33-23.59,25.41-28.1c21.92-7.55,45.43-11.39,68.42-8.42
		c22.99,2.97,45.44,13.14,60.94,30.38c4.91,5.46,9.13,11.66,11.47,18.61c4.5,13.38,1.63,27.99-1.26,41.81
		c-2.3,10.98-4.61,21.96-6.91,32.94c-0.53,2.51-1.11,5.14-2.82,7.04c-2.73,3.04-7.33,3.26-11.41,3.27
		c-43.63,0.09-87.25,0.19-130.88,0.28c-8.2,0.02-18.91-2-19.99-10.14"/>
</g>
</svg>
