<svg width="72" height="72" viewBox="0 0 72 72" fill="none" xmlns="http://www.w3.org/2000/svg">
<path fill-rule="evenodd" clip-rule="evenodd" d="M36.0001 7.33333C20.1679 7.33333 7.33342 20.1678 7.33342 36C7.33342 51.8322 20.1679 64.6667 36.0001 64.6667C51.8322 64.6667 64.6667 51.8322 64.6667 36C64.6667 20.1678 51.8322 7.33333 36.0001 7.33333ZM0.166748 36C0.166748 16.2098 16.2099 0.166667 36.0001 0.166667C55.7903 0.166667 71.8334 16.2098 71.8334 36C71.8334 55.7902 55.7903 71.8333 36.0001 71.8333C16.2099 71.8333 0.166748 55.7902 0.166748 36ZM49.2839 26.2995C50.6833 27.6989 50.6833 29.9678 49.2839 31.3671L34.9506 45.7005C33.5512 47.0998 31.2823 47.0998 29.8829 45.7005L22.7163 38.5338C21.3169 37.1344 21.3169 34.8656 22.7163 33.4662C24.1157 32.0668 26.3845 32.0668 27.7839 33.4662L32.4167 38.0991L44.2163 26.2995C45.6157 24.9002 47.8845 24.9002 49.2839 26.2995Z" fill="white"/>
</svg>
