<svg width="72" height="72" viewBox="0 0 72 72" fill="none" xmlns="http://www.w3.org/2000/svg">
<path fill-rule="evenodd" clip-rule="evenodd" d="M35.9998 7.33342C20.1677 7.33342 7.33317 20.1679 7.33317 36.0001C7.33317 51.8322 20.1677 64.6667 35.9998 64.6667C51.832 64.6667 64.6665 51.8322 64.6665 36.0001C64.6665 20.1679 51.832 7.33342 35.9998 7.33342ZM0.166504 36.0001C0.166504 16.2099 16.2096 0.166748 35.9998 0.166748C55.79 0.166748 71.8332 16.2099 71.8332 36.0001C71.8332 55.7903 55.79 71.8334 35.9998 71.8334C16.2096 71.8334 0.166504 55.7903 0.166504 36.0001ZM35.9998 18.0834C37.9789 18.0834 39.5832 19.6877 39.5832 21.6667V36.0001C39.5832 37.9791 37.9789 39.5834 35.9998 39.5834C34.0208 39.5834 32.4165 37.9791 32.4165 36.0001V21.6667C32.4165 19.6877 34.0208 18.0834 35.9998 18.0834ZM32.4165 50.3334C32.4165 48.3544 34.0208 46.7501 35.9998 46.7501H36.0357C38.0147 46.7501 39.619 48.3544 39.619 50.3334C39.619 52.3124 38.0147 53.9168 36.0357 53.9168H35.9998C34.0208 53.9168 32.4165 52.3124 32.4165 50.3334Z" fill="white"/>
</svg>
