<?xml version="1.0" encoding="utf-8"?>
<!-- Generator: Adobe Illustrator 25.2.1, SVG Export Plug-In . SVG Version: 6.00 Build 0)  -->
<svg version="1.1" id="Capa_1" xmlns="http://www.w3.org/2000/svg" xmlns:xlink="http://www.w3.org/1999/xlink" x="0px" y="0px"
	 viewBox="0 0 1080 1080" style="enable-background:new 0 0 1080 1080;" xml:space="preserve">
<style type="text/css">
	.st0{fill-rule:evenodd;clip-rule:evenodd;fill:#4B277A;}
</style>
<g>
	<path class="st0" d="M145.25,723.02h290.12c1.17-14.78-10.43-56.99-13.87-73.91c-5.07-24.91-8.83-49.96-14.1-75.1
		c-4.4-21-34.44-154.98-29.25-167.97c1.92-4.8,6.53-10.8,11.97-6.18c4.83,4.11,11.61,23.03,14.87,29.67
		c9.54,19.41,18.04,42.31,26.73,62.46l39.56,94.11c3.79,8.68,8.85,23.75,13.33,31.16l48.5-0.75c-6.38-10.06-22.43-22.3-30.95-44.64
		c-9.34-24.47,0.6-37.89,23.88-45.04c23.18-7.12,39.76,0,45.08,24.12c5.28,23.99-3,42.97-8.41,64.86l40.78-0.9
		c2.13-6.38,20.98-44.86,25.59-54.94c16.74-36.69,34.5-72.16,51.56-109.33c4.17-9.1,8.74-18.12,12.91-27.26
		c4.01-8.79,7.51-22.62,19.22-20.13c6.88,13.05-7.94,64.52-11.78,80.83c-6.2,26.36-12.66,52.69-18.96,79.04
		c-6.37,26.62-12.58,53.34-17.88,80.18c-2.77,14.08-5.03,26.08-8.64,40.09c-2.43,9.45-9.84,31.1-9.96,39.54
		c47.15,1.46,96.69,0,144.1,0c10.02,0,138.72-0.93,145.05,0.5L935.08,63H671.14L540.31,325.27L406.52,63.33l-261.34-0.32
		l0.05,659.93L145.25,723.02z"/>
	<path class="st0" d="M144.72,755.88h51.93c32.05,0,48.12,12.79,48.41,43.03c0.21,25.1-18.74,41.85-45.25,42.4
		c-10.44,0.22-14.64-0.19-23.42-0.28v33.04h-31.66L144.72,755.88L144.72,755.88z M176.16,779.94h21.8
		c12.89,0,18.28,9.22,17.92,18.62c-0.37,10.48-6.66,17.65-17.57,17.65h-22.15L176.16,779.94z M293.92,755.58l31.42,0.01l50.51,118.2
		h-33.33l-8.8-21.63h-50.32l-8.32,21.62l-32.61,0l51.46-118.17L293.92,755.58z M308.81,787.63l16.59,41.7h-33.66L308.81,787.63z
		 M390.24,755.21h55.83c32.32,0,47.54,23.53,47.02,41.96c-0.53,18.44-7.58,31.03-21.22,37.9l23.98,38.36h-34.57l-17.78-33.29h-22.52
		v33.29h-30.73L390.24,755.21z M421.41,779.87h24.34c11.26,0,18.2,6.57,18.06,18.22c-0.16,11.65-8.16,18.54-18.98,18.54h-23.43
		L421.41,779.87z M506.48,755.41h101.85v25.25h-35.7v92.97h-31.45v-92.97h-34.7L506.48,755.41z M624.22,755.41h30.92v118.21h-30.92
		V755.41z M682.55,755.59h47.59c39.52,0,66.56,20.65,66.66,58.39c0.11,37.74-29.06,59.83-70.43,59.83h-43.83L682.55,755.59z
		 M713.56,780.57h21.47c17.75,0,29.75,14.3,30.17,33.39c0.42,19.09-12.52,35.91-31.69,35.91h-19.95L713.56,780.57z M870.52,754.79
		c35.41,0,64.12,26.96,64.12,60.2c0,33.24-28.71,60.19-64.12,60.19c-35.41,0-64.11-26.95-64.11-60.19
		C806.4,781.74,835.11,754.79,870.52,754.79z M871.21,780.64c18.11,0,32.79,15.25,32.79,34.07s-14.68,34.07-32.79,34.07
		c-18.1,0-32.78-15.25-32.78-34.07C838.43,795.9,853.11,780.64,871.21,780.64z M595.37,897.05h31.42l50.51,118.2l-33.33,0
		l-8.8-21.62h-50.33l-8.32,21.62l-32.61,0l51.46-118.17L595.37,897.05z M610.27,929.09l16.59,41.7H593.2L610.27,929.09z
		 M686.91,897.33h47.59c39.52,0,66.56,20.65,66.66,58.39c0.11,37.73-29.06,59.83-70.43,59.83H686.9L686.91,897.33z M717.91,922.31
		h21.47c17.75,0,29.75,14.3,30.17,33.39c0.42,19.09-12.52,35.91-31.69,35.91h-19.96L717.91,922.31z M871.17,896.61
		c35.41,0,64.12,26.95,64.12,60.2c0,33.24-28.71,60.19-64.12,60.19c-35.4,0-64.11-26.95-64.11-60.19
		C807.05,923.56,835.76,896.61,871.17,896.61z M871.86,922.46c18.11,0,32.79,15.25,32.79,34.07c0,18.81-14.68,34.07-32.79,34.07
		c-18.1,0-32.78-15.26-32.78-34.07C839.08,937.71,853.76,922.46,871.86,922.46z M434.16,897.01H490c32.32,0,47.53,23.52,47.02,41.96
		c-0.53,18.43-7.58,31.03-21.23,37.9l23.98,38.36h-34.58l-17.78-33.29h-22.52v33.29h-30.73L434.16,897.01z M465.33,921.67h24.34
		c11.27,0,18.21,6.57,18.06,18.22c-0.11,11.65-8.16,18.54-18.98,18.54h-23.43L465.33,921.67z M355.23,896.61
		c35.4,0,64.11,26.95,64.11,60.2c0,33.24-28.71,60.19-64.11,60.19c-35.41,0-64.12-26.95-64.12-60.19
		C291.11,923.56,319.82,896.61,355.23,896.61z M355.92,922.46c18.11,0,32.79,15.25,32.79,34.07c0,18.81-14.68,34.07-32.79,34.07
		c-18.1,0-32.78-15.26-32.78-34.07C323.14,937.71,337.81,922.46,355.92,922.46z M145.21,896.91h33.5l31.83,68.47l31.5-68.47h33.22
		v118.22h-26.79l-0.01-74.18l-27.78,63.03h-20.83l-27.05-63.03l-0.37,74.18h-27.25L145.21,896.91z"/>
</g>
</svg>
